<svg xmlns="http://www.w3.org/2000/svg" xmlns:xlink="http://www.w3.org/1999/xlink" width="1040" height="602.75"><rect width="1040" height="602.75" rx="5" ry="5" class="a"/><svg y="0%" x="0%"><circle cx="20" cy="20" r="6" fill="#ff5f58"/><circle cx="40" cy="20" r="6" fill="#ffbd2e"/><circle cx="60" cy="20" r="6" fill="#18c132"/></svg><svg height="542.75" viewBox="0 0 100 54.275" width="1000" x="15" xmlns="http://www.w3.org/2000/svg" xmlns:xlink="http://www.w3.org/1999/xlink" y="50"><style>@keyframes k{0%{transform:translateX(0)}.94%{transform:translateX(-100px)}3.02%{transform:translateX(-200px)}9.08%{transform:translateX(-300px)}9.28%{transform:translateX(-400px)}9.73%{transform:translateX(-500px)}10.42%{transform:translateX(-600px)}10.52%{transform:translateX(-700px)}11.55%{transform:translateX(-800px)}12.66%{transform:translateX(-900px)}15.33%{transform:translateX(-1000px)}15.75%{transform:translateX(-1200px)}15.97%{transform:translateX(-1300px)}23.07%{transform:translateX(-1400px)}30.47%{transform:translateX(-1500px)}30.59%{transform:translateX(-1600px)}31.28%{transform:translateX(-1700px)}32.13%{transform:translateX(-1800px)}32.32%{transform:translateX(-1900px)}33.01%{transform:translateX(-2000px)}33.41%{transform:translateX(-2100px)}34.15%{transform:translateX(-2200px)}36.88%{transform:translateX(-2300px)}37.79%{transform:translateX(-2400px)}40.15%{transform:translateX(-2500px)}40.52%{transform:translateX(-2600px)}41.13%{transform:translateX(-2700px)}41.46%{transform:translateX(-2800px)}42.36%{transform:translateX(-2900px)}42.61%{transform:translateX(-3000px)}43.01%{transform:translateX(-3100px)}43.3%{transform:translateX(-3200px)}44.6%{transform:translateX(-3300px)}45.53%{transform:translateX(-3400px)}45.91%{transform:translateX(-3500px)}46.52%{transform:translateX(-3600px)}46.74%{transform:translateX(-3700px)}47.24%{transform:translateX(-3800px)}48.34%{transform:translateX(-3900px)}51.02%{transform:translateX(-4000px)}51.92%{transform:translateX(-4100px)}52.75%{transform:translateX(-4200px)}53.95%{transform:translateX(-4300px)}54.33%{transform:translateX(-4400px)}54.75%{transform:translateX(-4500px)}55.41%{transform:translateX(-4600px)}56.14%{transform:translateX(-4700px)}56.79%{transform:translateX(-4800px)}56.91%{transform:translateX(-4900px)}60.48%{transform:translateX(-5000px)}61%{transform:translateX(-5100px)}61.17%{transform:translateX(-5200px)}67.17%{transform:translateX(-5300px)}69.64%{transform:translateX(-5400px)}69.84%{transform:translateX(-5500px)}70.3%{transform:translateX(-5600px)}71.11%{transform:translateX(-5700px)}72.98%{transform:translateX(-5800px)}73.71%{transform:translateX(-5900px)}74.37%{transform:translateX(-6000px)}75.29%{transform:translateX(-6100px)}78.59%{transform:translateX(-6200px)}82.39%{transform:translateX(-6300px)}82.77%{transform:translateX(-6400px)}83.17%{transform:translateX(-6500px)}85.94%{transform:translateX(-6600px)}86.45%{transform:translateX(-6800px)}86.58%{transform:translateX(-6900px)}to{transform:translateX(-7000px)}}.a{fill:#282d35}.f,.g,.h{fill:#b9c0cb;white-space:pre}.g,.h{fill:#66c2cd}.h{fill:#a8cc8c}</style><g font-family="Monaco,Consolas,Menlo,'Bitstream Vera Sans Mono','Powerline Symbols',monospace" font-size="1.67"><defs><symbol id="1"><text y="1.67" class="f">&gt;</text></symbol><symbol id="2"><text y="1.67" class="f">&gt;</text><text x="2.004" y="1.67" class="f">c</text></symbol><symbol id="3"><text y="1.67" class="f">&gt;</text><text x="2.004" y="1.67" class="f">ca</text></symbol><symbol id="4"><text y="1.67" class="f">&gt;</text><text x="2.004" y="1.67" class="f">cat</text></symbol><symbol id="5"><text y="1.67" class="f">&gt;</text><text x="2.004" y="1.67" class="f">cat</text><text x="6.012" y="1.67" class="f">a</text></symbol><symbol id="6"><text y="1.67" class="f">&gt;</text><text x="2.004" y="1.67" class="f">cat</text><text x="6.012" y="1.67" class="f">ac</text></symbol><symbol id="7"><text y="1.67" class="f">&gt;</text><text x="2.004" y="1.67" class="f">cat</text><text x="6.012" y="1.67" class="f">access_log</text></symbol><symbol id="8"><text y="1.67" class="f">183.87.255.54</text><text x="14.028" y="1.67" class="f">-</text><text x="16.032" y="1.67" class="f">-</text><text x="18.036" y="1.67" class="f">[18/May/2019:05:37:09</text><text x="40.08" y="1.67" class="f">+0200]</text><text x="47.094" y="1.67" class="f">&quot;GET</text><text x="52.104" y="1.67" class="f">/?post=%3script%3ealert(1);</text><text x="80.16" y="1.67" class="f">HTTP/1.0&quot;</text><text x="90.18" y="1.67" class="f">200</text><text x="94.188" y="1.67" class="f">42433</text></symbol><symbol id="9"><text y="1.67" class="f">62.109.16.162</text><text x="14.028" y="1.67" class="f">-</text><text x="16.032" y="1.67" class="f">-</text><text x="18.036" y="1.67" class="f">[18/May/2019:05:37:12</text><text x="40.08" y="1.67" class="f">+0200]</text><text x="47.094" y="1.67" class="f">&quot;GET</text><text x="52.104" y="1.67" class="f">/core/files/js/editor.js/?form=\xeb\x2a\x5e\x89\</text></symbol><symbol id="10"><text y="1.67" class="f">x76\x08\xc6\x46\x07\x00\xc7\x46\x0c\x00\x00\x00\x80\xe8\xdc\xff\xff\xff/bin/sh</text><text x="79.158" y="1.67" class="f">HTTP/1.0&quot;</text><text x="89.178" y="1.67" class="f">200</text><text x="93.186" y="1.67" class="f">81956</text></symbol><symbol id="11"><text y="1.67" class="f">87.251.81.179</text><text x="14.028" y="1.67" class="f">-</text><text x="16.032" y="1.67" class="f">-</text><text x="18.036" y="1.67" class="f">[18/May/2019:05:37:13</text><text x="40.08" y="1.67" class="f">+0200]</text><text x="47.094" y="1.67" class="f">&quot;GET</text><text x="52.104" y="1.67" class="f">/login.php/?user=admin&amp;amount=100000</text><text x="89.178" y="1.67" class="f">HTTP/1.0&quot;</text><text x="99.198" y="1.67" class="f">4</text></symbol><symbol id="12"><text y="1.67" class="f">00</text><text x="3.006" y="1.67" class="f">4797</text></symbol><symbol id="13"><text y="1.67" class="f">103.36.79.144</text><text x="14.028" y="1.67" class="f">-</text><text x="16.032" y="1.67" class="f">-</text><text x="18.036" y="1.67" class="f">[18/May/2019:05:37:14</text><text x="40.08" y="1.67" class="f">+0200]</text><text x="47.094" y="1.67" class="f">&quot;GET</text><text x="52.104" y="1.67" class="f">/authorize.php/.well-known/assetlinks.json</text><text x="95.19" y="1.67" class="f">HTTP/</text></symbol><symbol id="14"><text y="1.67" class="f">1.0&quot;</text><text x="5.01" y="1.67" class="f">200</text><text x="9.018" y="1.67" class="f">9436</text></symbol><symbol id="15"><text y="1.67" class="f">&gt;</text><text x="2.004" y="1.67" class="f">cat</text><text x="6.012" y="1.67" class="f">access_log|</text></symbol><symbol id="16"><text y="1.67" class="f">&gt;</text><text x="2.004" y="1.67" class="f">cat</text><text x="6.012" y="1.67" class="f">access_log|</text><text x="18.036" y="1.67" class="f">runn</text></symbol><symbol id="17"><text y="1.67" class="f">&gt;</text><text x="2.004" y="1.67" class="f">cat</text><text x="6.012" y="1.67" class="f">access_log|</text><text x="18.036" y="1.67" class="f">runn</text><text x="23.046" y="1.67" class="f">new</text></symbol><symbol id="18"><text y="1.67" class="f">&gt;</text><text x="2.004" y="1.67" class="f">cat</text><text x="6.012" y="1.67" class="f">access_log|</text><text x="18.036" y="1.67" class="f">runn</text><text x="23.046" y="1.67" class="f">new</text><text x="27.054" y="1.67" class="f">--out</text></symbol><symbol id="19"><text y="1.67" class="f">&gt;</text><text x="2.004" y="1.67" class="f">cat</text><text x="6.012" y="1.67" class="f">access_log|</text><text x="18.036" y="1.67" class="f">runn</text><text x="23.046" y="1.67" class="f">new</text><text x="27.054" y="1.67" class="f">--out</text><text x="33.066" y="1.67" class="f">axslog.yml</text></symbol><symbol id="20"><text y="1.67" class="f">&gt;</text><text x="2.004" y="1.67" class="f">cat</text><text x="6.012" y="1.67" class="f">axslog.yml|</text></symbol><symbol id="21"><text y="1.67" class="f">&gt;</text><text x="2.004" y="1.67" class="f">cat</text><text x="6.012" y="1.67" class="f">axslog.yml|</text><text x="18.036" y="1.67" class="f">yq</text></symbol><symbol id="22"><text y="1.67" class="g">desc</text><text x="4.008" y="1.67" class="f">:</text><text x="6.012" y="1.67" class="h">Generated</text><text x="16.032" y="1.67" class="h">by</text><text x="19.038" y="1.67" class="h">`runn</text><text x="25.05" y="1.67" class="h">new`</text></symbol><symbol id="23"><text y="1.67" class="g">runners</text><text x="7.014" y="1.67" class="f">:</text></symbol><symbol id="24"><text x="2.004" y="1.67" class="g">req</text><text x="5.01" y="1.67" class="f">:</text><text x="7.014" y="1.67" class="h">https://dummy.example.com</text></symbol><symbol id="25"><text y="1.67" class="g">steps</text><text x="5.01" y="1.67" class="f">:</text></symbol><symbol id="26"><text x="2.004" y="1.67" class="f">-</text><text x="4.008" y="1.67" class="g">req</text><text x="7.014" y="1.67" class="f">:</text></symbol><symbol id="27"><text x="6.012" y="1.67" class="g">/?post=%3script%3ealert(1);</text><text x="33.066" y="1.67" class="f">:</text></symbol><symbol id="28"><text x="8.016" y="1.67" class="g">get</text><text x="11.022" y="1.67" class="f">:</text></symbol><symbol id="29"><text x="10.02" y="1.67" class="g">body</text><text x="14.028" y="1.67" class="f">:</text><text x="16.032" y="1.67" class="f">null</text></symbol><symbol id="30"><text x="6.012" y="1.67" class="g">/core/files/js/editor.js/?form=xebx2ax5ex89x76x08xc6x46x07x00xc7x46x0cx00x00x00x80xe8xdcxffxff</text></symbol><symbol id="31"><text y="1.67" class="g">xff/bin/sh</text><text x="10.02" y="1.67" class="f">:</text></symbol><symbol id="32"><text x="6.012" y="1.67" class="g">/login.php/?user=admin&amp;amount=100000</text><text x="42.084" y="1.67" class="f">:</text></symbol><symbol id="33"><text x="6.012" y="1.67" class="g">/authorize.php/.well-known/assetlinks.json</text><text x="48.096" y="1.67" class="f">:</text></symbol><symbol id="a"><path fill="transparent" d="M0 0h100v25H0z"/></symbol><symbol id="b"><path fill="#6f7683" d="M0 0h1.102v2.171H0z"/></symbol></defs><path class="a" d="M0 0h100v54.275H0z"/><g style="animation-duration:17.1983085s;animation-iteration-count:infinite;animation-name:k;animation-timing-function:steps(1,end)"><svg width="7100"><svg><use xlink:href="#a"/><use xlink:href="#b" x="-.004"/></svg><svg x="100"><use xlink:href="#a"/><use xlink:href="#b" x="-.004"/></svg><svg x="200"><use xlink:href="#a"/><use xlink:href="#b" x="1.996"/><use xlink:href="#1"/></svg><svg x="300"><use xlink:href="#a"/><use xlink:href="#b" x="2.996"/><use xlink:href="#2"/></svg><svg x="400"><use xlink:href="#a"/><use xlink:href="#b" x="3.996"/><use xlink:href="#3"/></svg><svg x="500"><use xlink:href="#a"/><use xlink:href="#b" x="4.996"/><use xlink:href="#4"/></svg><svg x="600"><use xlink:href="#a"/><use xlink:href="#b" x="5.996"/><use xlink:href="#4"/></svg><svg x="700"><use xlink:href="#a"/><use xlink:href="#b" x="6.996"/><use xlink:href="#5"/></svg><svg x="800"><use xlink:href="#a"/><use xlink:href="#b" x="7.996"/><use xlink:href="#6"/></svg><svg x="900"><use xlink:href="#a"/><use xlink:href="#b" x="16.996"/><use xlink:href="#7"/></svg><svg x="1000"><use xlink:href="#a"/><use xlink:href="#b" x="-.004" y="2.146"/><use xlink:href="#7"/></svg><svg x="1100"><use xlink:href="#a"/><use xlink:href="#b" x="-.004" y="17.343"/><use xlink:href="#7"/><use xlink:href="#8" y="2.171"/><use xlink:href="#9" y="4.342"/><use xlink:href="#10" y="6.513"/><use xlink:href="#11" y="8.684"/><use xlink:href="#12" y="10.855"/><use xlink:href="#13" y="13.026"/><use xlink:href="#14" y="15.197"/></svg><svg x="1200"><use xlink:href="#a"/><use xlink:href="#b" x="-.004" y="17.343"/><use xlink:href="#7"/><use xlink:href="#8" y="2.171"/><use xlink:href="#9" y="4.342"/><use xlink:href="#10" y="6.513"/><use xlink:href="#11" y="8.684"/><use xlink:href="#12" y="10.855"/><use xlink:href="#13" y="13.026"/><use xlink:href="#14" y="15.197"/></svg><svg x="1300"><use xlink:href="#a"/><use xlink:href="#b" x="1.996" y="17.343"/><use xlink:href="#7"/><use xlink:href="#8" y="2.171"/><use xlink:href="#9" y="4.342"/><use xlink:href="#10" y="6.513"/><use xlink:href="#11" y="8.684"/><use xlink:href="#12" y="10.855"/><use xlink:href="#13" y="13.026"/><use xlink:href="#14" y="15.197"/><use xlink:href="#1" y="17.368"/></svg><svg x="1400"><use xlink:href="#a"/><use xlink:href="#b" x="1.996"/><use xlink:href="#1"/></svg><svg x="1500"><use xlink:href="#a"/><use xlink:href="#b" x="2.996"/><use xlink:href="#2"/></svg><svg x="1600"><use xlink:href="#a"/><use xlink:href="#b" x="3.996"/><use xlink:href="#3"/></svg><svg x="1700"><use xlink:href="#a"/><use xlink:href="#b" x="4.996"/><use xlink:href="#4"/></svg><svg x="1800"><use xlink:href="#a"/><use xlink:href="#b" x="5.996"/><use xlink:href="#4"/></svg><svg x="1900"><use xlink:href="#a"/><use xlink:href="#b" x="6.996"/><use xlink:href="#5"/></svg><svg x="2000"><use xlink:href="#a"/><use xlink:href="#b" x="7.996"/><use xlink:href="#6"/></svg><svg x="2100"><use xlink:href="#a"/><use xlink:href="#b" x="8.996"/><text y="1.67" class="f">&gt;</text><text x="2.004" y="1.67" class="f">cat</text><text x="6.012" y="1.67" class="f">acc</text></svg><svg x="2200"><use xlink:href="#a"/><use xlink:href="#b" x="16.996"/><use xlink:href="#7"/></svg><svg x="2300"><use xlink:href="#a"/><use xlink:href="#b" x="16.996"/><use xlink:href="#15"/></svg><svg x="2400"><use xlink:href="#a"/><use xlink:href="#b" x="17.996"/><use xlink:href="#15"/></svg><svg x="2500"><use xlink:href="#a"/><use xlink:href="#b" x="18.996"/><text y="1.67" class="f">&gt;</text><text x="2.004" y="1.67" class="f">cat</text><text x="6.012" y="1.67" class="f">access_log|</text><text x="18.036" y="1.67" class="f">r</text></svg><svg x="2600"><use xlink:href="#a"/><use xlink:href="#b" x="19.996"/><text y="1.67" class="f">&gt;</text><text x="2.004" y="1.67" class="f">cat</text><text x="6.012" y="1.67" class="f">access_log|</text><text x="18.036" y="1.67" class="f">ru</text></svg><svg x="2700"><use xlink:href="#a"/><use xlink:href="#b" x="20.996"/><text y="1.67" class="f">&gt;</text><text x="2.004" y="1.67" class="f">cat</text><text x="6.012" y="1.67" class="f">access_log|</text><text x="18.036" y="1.67" class="f">run</text></svg><svg x="2800"><use xlink:href="#a"/><use xlink:href="#b" x="21.996"/><use xlink:href="#16"/></svg><svg x="2900"><use xlink:href="#a"/><use xlink:href="#b" x="22.996"/><use xlink:href="#16"/></svg><svg x="3000"><use xlink:href="#a"/><use xlink:href="#b" x="23.996"/><text y="1.67" class="f">&gt;</text><text x="2.004" y="1.67" class="f">cat</text><text x="6.012" y="1.67" class="f">access_log|</text><text x="18.036" y="1.67" class="f">runn</text><text x="23.046" y="1.67" class="f">n</text></svg><svg x="3100"><use xlink:href="#a"/><use xlink:href="#b" x="24.996"/><text y="1.67" class="f">&gt;</text><text x="2.004" y="1.67" class="f">cat</text><text x="6.012" y="1.67" class="f">access_log|</text><text x="18.036" y="1.67" class="f">runn</text><text x="23.046" y="1.67" class="f">ne</text></svg><svg x="3200"><use xlink:href="#a"/><use xlink:href="#b" x="25.996"/><use xlink:href="#17"/></svg><svg x="3300"><use xlink:href="#a"/><use xlink:href="#b" x="26.996"/><use xlink:href="#17"/></svg><svg x="3400"><use xlink:href="#a"/><use xlink:href="#b" x="27.996"/><text y="1.67" class="f">&gt;</text><text x="2.004" y="1.67" class="f">cat</text><text x="6.012" y="1.67" class="f">access_log|</text><text x="18.036" y="1.67" class="f">runn</text><text x="23.046" y="1.67" class="f">new</text><text x="27.054" y="1.67" class="f">-</text></svg><svg x="3500"><use xlink:href="#a"/><use xlink:href="#b" x="28.996"/><text y="1.67" class="f">&gt;</text><text x="2.004" y="1.67" class="f">cat</text><text x="6.012" y="1.67" class="f">access_log|</text><text x="18.036" y="1.67" class="f">runn</text><text x="23.046" y="1.67" class="f">new</text><text x="27.054" y="1.67" class="f">--</text></svg><svg x="3600"><use xlink:href="#a"/><use xlink:href="#b" x="29.996"/><text y="1.67" class="f">&gt;</text><text x="2.004" y="1.67" class="f">cat</text><text x="6.012" y="1.67" class="f">access_log|</text><text x="18.036" y="1.67" class="f">runn</text><text x="23.046" y="1.67" class="f">new</text><text x="27.054" y="1.67" class="f">--o</text></svg><svg x="3700"><use xlink:href="#a"/><use xlink:href="#b" x="30.996"/><text y="1.67" class="f">&gt;</text><text x="2.004" y="1.67" class="f">cat</text><text x="6.012" y="1.67" class="f">access_log|</text><text x="18.036" y="1.67" class="f">runn</text><text x="23.046" y="1.67" class="f">new</text><text x="27.054" y="1.67" class="f">--ou</text></svg><svg x="3800"><use xlink:href="#a"/><use xlink:href="#b" x="31.996"/><use xlink:href="#18"/></svg><svg x="3900"><use xlink:href="#a"/><use xlink:href="#b" x="32.996"/><use xlink:href="#18"/></svg><svg x="4000"><use xlink:href="#a"/><use xlink:href="#b" x="33.996"/><text y="1.67" class="f">&gt;</text><text x="2.004" y="1.67" class="f">cat</text><text x="6.012" y="1.67" class="f">access_log|</text><text x="18.036" y="1.67" class="f">runn</text><text x="23.046" y="1.67" class="f">new</text><text x="27.054" y="1.67" class="f">--out</text><text x="33.066" y="1.67" class="f">a</text></svg><svg x="4100"><use xlink:href="#a"/><use xlink:href="#b" x="34.996"/><text y="1.67" class="f">&gt;</text><text x="2.004" y="1.67" class="f">cat</text><text x="6.012" y="1.67" class="f">access_log|</text><text x="18.036" y="1.67" class="f">runn</text><text x="23.046" y="1.67" class="f">new</text><text x="27.054" y="1.67" class="f">--out</text><text x="33.066" y="1.67" class="f">ax</text></svg><svg x="4200"><use xlink:href="#a"/><use xlink:href="#b" x="35.996"/><text y="1.67" class="f">&gt;</text><text x="2.004" y="1.67" class="f">cat</text><text x="6.012" y="1.67" class="f">access_log|</text><text x="18.036" y="1.67" class="f">runn</text><text x="23.046" y="1.67" class="f">new</text><text x="27.054" y="1.67" class="f">--out</text><text x="33.066" y="1.67" class="f">axs</text></svg><svg x="4300"><use xlink:href="#a"/><use xlink:href="#b" x="36.996"/><text y="1.67" class="f">&gt;</text><text x="2.004" y="1.67" class="f">cat</text><text x="6.012" y="1.67" class="f">access_log|</text><text x="18.036" y="1.67" class="f">runn</text><text x="23.046" y="1.67" class="f">new</text><text x="27.054" y="1.67" class="f">--out</text><text x="33.066" y="1.67" class="f">axsl</text></svg><svg x="4400"><use xlink:href="#a"/><use xlink:href="#b" x="37.996"/><text y="1.67" class="f">&gt;</text><text x="2.004" y="1.67" class="f">cat</text><text x="6.012" y="1.67" class="f">access_log|</text><text x="18.036" y="1.67" class="f">runn</text><text x="23.046" y="1.67" class="f">new</text><text x="27.054" y="1.67" class="f">--out</text><text x="33.066" y="1.67" class="f">axslo</text></svg><svg x="4500"><use xlink:href="#a"/><use xlink:href="#b" x="38.996"/><text y="1.67" class="f">&gt;</text><text x="2.004" y="1.67" class="f">cat</text><text x="6.012" y="1.67" class="f">access_log|</text><text x="18.036" y="1.67" class="f">runn</text><text x="23.046" y="1.67" class="f">new</text><text x="27.054" y="1.67" class="f">--out</text><text x="33.066" y="1.67" class="f">axslog</text></svg><svg x="4600"><use xlink:href="#a"/><use xlink:href="#b" x="39.996"/><text y="1.67" class="f">&gt;</text><text x="2.004" y="1.67" class="f">cat</text><text x="6.012" y="1.67" class="f">access_log|</text><text x="18.036" y="1.67" class="f">runn</text><text x="23.046" y="1.67" class="f">new</text><text x="27.054" y="1.67" class="f">--out</text><text x="33.066" y="1.67" class="f">axslog.</text></svg><svg x="4700"><use xlink:href="#a"/><use xlink:href="#b" x="40.996"/><text y="1.67" class="f">&gt;</text><text x="2.004" y="1.67" class="f">cat</text><text x="6.012" y="1.67" class="f">access_log|</text><text x="18.036" y="1.67" class="f">runn</text><text x="23.046" y="1.67" class="f">new</text><text x="27.054" y="1.67" class="f">--out</text><text x="33.066" y="1.67" class="f">axslog.y</text></svg><svg x="4800"><use xlink:href="#a"/><use xlink:href="#b" x="41.996"/><text y="1.67" class="f">&gt;</text><text x="2.004" y="1.67" class="f">cat</text><text x="6.012" y="1.67" class="f">access_log|</text><text x="18.036" y="1.67" class="f">runn</text><text x="23.046" y="1.67" class="f">new</text><text x="27.054" y="1.67" class="f">--out</text><text x="33.066" y="1.67" class="f">axslog.ym</text></svg><svg x="4900"><use xlink:href="#a"/><use xlink:href="#b" x="42.996"/><use xlink:href="#19"/></svg><svg x="5000"><use xlink:href="#a"/><use xlink:href="#b" x="-.004" y="2.146"/><use xlink:href="#19"/></svg><svg x="5100"><use xlink:href="#a"/><use xlink:href="#b" x="-.004" y="2.146"/><use xlink:href="#19"/></svg><svg x="5200"><use xlink:href="#a"/><use xlink:href="#b" x="1.996" y="2.146"/><use xlink:href="#19"/><use xlink:href="#1" y="2.171"/></svg><svg x="5300"><use xlink:href="#a"/><use xlink:href="#b" x="1.996"/><use xlink:href="#1"/></svg><svg x="5400"><use xlink:href="#a"/><use xlink:href="#b" x="2.996"/><use xlink:href="#2"/></svg><svg x="5500"><use xlink:href="#a"/><use xlink:href="#b" x="3.996"/><use xlink:href="#3"/></svg><svg x="5600"><use xlink:href="#a"/><use xlink:href="#b" x="4.996"/><use xlink:href="#4"/></svg><svg x="5700"><use xlink:href="#a"/><use xlink:href="#b" x="5.996"/><use xlink:href="#4"/></svg><svg x="5800"><use xlink:href="#a"/><use xlink:href="#b" x="6.996"/><use xlink:href="#5"/></svg><svg x="5900"><use xlink:href="#a"/><use xlink:href="#b" x="7.996"/><text y="1.67" class="f">&gt;</text><text x="2.004" y="1.67" class="f">cat</text><text x="6.012" y="1.67" class="f">ax</text></svg><svg x="6000"><use xlink:href="#a"/><use xlink:href="#b" x="8.996"/><text y="1.67" class="f">&gt;</text><text x="2.004" y="1.67" class="f">cat</text><text x="6.012" y="1.67" class="f">axs</text></svg><svg x="6100"><use xlink:href="#a"/><use xlink:href="#b" x="16.996"/><text y="1.67" class="f">&gt;</text><text x="2.004" y="1.67" class="f">cat</text><text x="6.012" y="1.67" class="f">axslog.yml</text></svg><svg x="6200"><use xlink:href="#a"/><use xlink:href="#b" x="16.996"/><use xlink:href="#20"/></svg><svg x="6300"><use xlink:href="#a"/><use xlink:href="#b" x="17.996"/><use xlink:href="#20"/></svg><svg x="6400"><use xlink:href="#a"/><use xlink:href="#b" x="18.996"/><text y="1.67" class="f">&gt;</text><text x="2.004" y="1.67" class="f">cat</text><text x="6.012" y="1.67" class="f">axslog.yml|</text><text x="18.036" y="1.67" class="f">y</text></svg><svg x="6500"><use xlink:href="#a"/><use xlink:href="#b" x="19.996"/><use xlink:href="#21"/></svg><svg x="6600"><use xlink:href="#a"/><use xlink:href="#b" x="-.004" y="2.146"/><use xlink:href="#21"/></svg><svg x="6700"><use xlink:href="#a"/><use xlink:href="#b" x="-.004" y="47.737"/><use xlink:href="#21"/><use xlink:href="#22" y="2.171"/><use xlink:href="#23" y="4.342"/><use xlink:href="#24" y="6.513"/><use xlink:href="#25" y="8.684"/><use xlink:href="#26" y="10.855"/><use xlink:href="#27" y="13.026"/><use xlink:href="#28" y="15.197"/><use xlink:href="#29" y="17.368"/><use xlink:href="#26" y="19.539"/><use xlink:href="#30" y="21.71"/><use xlink:href="#31" y="23.881"/><use xlink:href="#28" y="26.052"/><use xlink:href="#29" y="28.223"/><use xlink:href="#26" y="30.394"/><use xlink:href="#32" y="32.565"/><use xlink:href="#28" y="34.736"/><use xlink:href="#29" y="36.907"/><use xlink:href="#26" y="39.078"/><use xlink:href="#33" y="41.249"/><use xlink:href="#28" y="43.42"/><use xlink:href="#29" y="45.591"/></svg><svg x="6800"><use xlink:href="#a"/><use xlink:href="#b" x="-.004" y="47.737"/><use xlink:href="#21"/><use xlink:href="#22" y="2.171"/><use xlink:href="#23" y="4.342"/><use xlink:href="#24" y="6.513"/><use xlink:href="#25" y="8.684"/><use xlink:href="#26" y="10.855"/><use xlink:href="#27" y="13.026"/><use xlink:href="#28" y="15.197"/><use xlink:href="#29" y="17.368"/><use xlink:href="#26" y="19.539"/><use xlink:href="#30" y="21.71"/><use xlink:href="#31" y="23.881"/><use xlink:href="#28" y="26.052"/><use xlink:href="#29" y="28.223"/><use xlink:href="#26" y="30.394"/><use xlink:href="#32" y="32.565"/><use xlink:href="#28" y="34.736"/><use xlink:href="#29" y="36.907"/><use xlink:href="#26" y="39.078"/><use xlink:href="#33" y="41.249"/><use xlink:href="#28" y="43.42"/><use xlink:href="#29" y="45.591"/></svg><svg x="6900"><use xlink:href="#a"/><use xlink:href="#b" x="1.996" y="47.737"/><use xlink:href="#21"/><use xlink:href="#22" y="2.171"/><use xlink:href="#23" y="4.342"/><use xlink:href="#24" y="6.513"/><use xlink:href="#25" y="8.684"/><use xlink:href="#26" y="10.855"/><use xlink:href="#27" y="13.026"/><use xlink:href="#28" y="15.197"/><use xlink:href="#29" y="17.368"/><use xlink:href="#26" y="19.539"/><use xlink:href="#30" y="21.71"/><use xlink:href="#31" y="23.881"/><use xlink:href="#28" y="26.052"/><use xlink:href="#29" y="28.223"/><use xlink:href="#26" y="30.394"/><use xlink:href="#32" y="32.565"/><use xlink:href="#28" y="34.736"/><use xlink:href="#29" y="36.907"/><use xlink:href="#26" y="39.078"/><use xlink:href="#33" y="41.249"/><use xlink:href="#28" y="43.42"/><use xlink:href="#29" y="45.591"/><use xlink:href="#1" y="47.762"/></svg><svg x="7000"><use xlink:href="#a"/><use xlink:href="#b" x="-.004" y="49.908"/><use xlink:href="#21"/><use xlink:href="#22" y="2.171"/><use xlink:href="#23" y="4.342"/><use xlink:href="#24" y="6.513"/><use xlink:href="#25" y="8.684"/><use xlink:href="#26" y="10.855"/><use xlink:href="#27" y="13.026"/><use xlink:href="#28" y="15.197"/><use xlink:href="#29" y="17.368"/><use xlink:href="#26" y="19.539"/><use xlink:href="#30" y="21.71"/><use xlink:href="#31" y="23.881"/><use xlink:href="#28" y="26.052"/><use xlink:href="#29" y="28.223"/><use xlink:href="#26" y="30.394"/><use xlink:href="#32" y="32.565"/><use xlink:href="#28" y="34.736"/><use xlink:href="#29" y="36.907"/><use xlink:href="#26" y="39.078"/><use xlink:href="#33" y="41.249"/><use xlink:href="#28" y="43.42"/><use xlink:href="#29" y="45.591"/><use xlink:href="#1" y="47.762"/></svg></svg></g></g></svg></svg>